<svg xmlns="http://www.w3.org/2000/svg" xmlns:xlink="http://www.w3.org/1999/xlink" width="300" height="80" viewBox="0 0 300 80"><defs><style>.a{fill:#fff;}.b{fill:#ff0048;}.c{fill:url(#a);}.d{mask:url(#b);}.e{fill:#1111f8;}</style><linearGradient id="a" x1="1.74" y1="42.31" x2="48.58" y2="42.31" gradientTransform="matrix(1, 0, 0, -1, 0, 82)" gradientUnits="userSpaceOnUse"><stop offset="0" stop-color="#fae4ea"/><stop offset="1" stop-color="#f5f5ff"/></linearGradient><mask id="b" x="-6.81" y="8.15" width="63.87" height="62.85" maskUnits="userSpaceOnUse"><ellipse class="a" cx="25.16" cy="39.69" rx="23.42" ry="23.05"/></mask></defs><title>repo-headers</title><ellipse class="b" cx="23.42" cy="42.25" rx="23.42" ry="23.05"/><ellipse class="c" cx="25.16" cy="39.69" rx="23.42" ry="23.05"/><g class="d"><polygon class="e" points="23.86 71 22.63 69.79 55.83 37.12 57.05 38.33 23.86 71"/><polygon class="e" points="18.95 66.17 17.72 64.96 50.92 32.3 52.15 33.5 18.95 66.17"/><polygon class="e" points="14.04 61.34 12.81 60.14 46.01 27.47 47.24 28.67 14.04 61.34"/><polygon class="e" points="9.13 56.51 7.91 55.31 41.11 22.64 42.33 23.84 9.13 56.51"/><polygon class="e" points="4.23 51.69 3 50.48 36.2 17.81 37.43 19.02 4.23 51.69"/><polygon class="e" points="-0.68 46.86 -1.91 45.65 31.29 12.98 32.52 14.19 -0.68 46.86"/><polygon class="e" points="-5.59 42.03 -6.82 40.82 26.39 8.15 27.61 9.36 -5.59 42.03"/></g><path d="M70.19,48.39H61.9V35.06h2.64V46.15h5.65Z"/><path d="M81.19,42.6v1.16c0,3.08-1.89,4.82-4.73,4.82s-4.75-1.72-4.75-4.82V42.62a4.49,4.49,0,0,1,4.75-4.77A4.44,4.44,0,0,1,81.19,42.6Zm-6.88.07v1.07c0,1.56.67,2.84,2.15,2.84s2.13-1.27,2.13-2.84V42.67c0-1.57-.7-2.83-2.13-2.83S74.31,41.11,74.31,42.67Z"/><path d="M83.24,45.38c0-1.85,1.29-3.08,3.69-3.08h2.53v-.93c0-1-.67-1.54-1.73-1.54s-1.55.46-1.68,1.1H83.62c.12-1.7,1.33-3.07,4.17-3.07,2.33,0,4.22.94,4.22,3.57v7H89.58V47.07h-.12a3,3,0,0,1-2.81,1.48A3.1,3.1,0,0,1,83.24,45.38Zm6.22-.46V43.85h-2c-1.14,0-1.68.58-1.68,1.37a1.5,1.5,0,0,0,1.69,1.43A1.83,1.83,0,0,0,89.46,44.92Z"/><path d="M101.73,42.58c0,2.46,1.06,3.84,2.93,3.84a2.46,2.46,0,0,0,2.63-2.34h2.55v.26c-.12,2.55-2.28,4.31-5.2,4.31-3.59,0-5.6-2.29-5.6-6.07V40.92c0-3.78,2-6.11,5.6-6.11,2.93,0,5.09,1.8,5.2,4.44v.25h-2.55A2.54,2.54,0,0,0,104.66,37c-1.85,0-2.93,1.43-2.93,3.9Z"/><path d="M121.45,42.6v1.16c0,3.08-1.89,4.82-4.72,4.82S112,46.86,112,43.76V42.62a4.5,4.5,0,0,1,4.76-4.77A4.43,4.43,0,0,1,121.45,42.6Zm-6.88.07v1.07c0,1.56.67,2.84,2.16,2.84s2.13-1.27,2.13-2.84V42.67c0-1.57-.71-2.83-2.13-2.83S114.57,41.11,114.57,42.67Z"/><path d="M124,38h2.51v1.71h.13a2.67,2.67,0,0,1,2.83-1.88,2.71,2.71,0,0,1,2.84,2h.1a3.18,3.18,0,0,1,3.15-2,3.06,3.06,0,0,1,3.34,3.3v7.23h-2.57V42c0-1.32-.71-2-1.78-2a1.89,1.89,0,0,0-1.87,2.11v6.3h-2.48V42a1.77,1.77,0,0,0-1.8-2,1.85,1.85,0,0,0-1.83,2.09v6.32H124Z"/><path d="M144.65,46.81h-.13v5h-2.58V38h2.53v1.65h.14a3,3,0,0,1,3-1.78c2.4,0,3.85,1.73,3.85,4.61v1.41c0,2.88-1.46,4.62-3.89,4.62A3,3,0,0,1,144.65,46.81Zm4.21-3.14v-.9c0-1.8-.78-2.83-2.17-2.83s-2.17,1-2.17,2.66V44a2.25,2.25,0,0,0,2.2,2.53C148.08,46.48,148.86,45.45,148.86,43.67Z"/><path d="M155.57,33.54A1.44,1.44,0,1,1,154,35,1.46,1.46,0,0,1,155.57,33.54ZM154.29,38h2.57V48.39h-2.57Z"/><path d="M160.19,34.36h2.57v14h-2.57Z"/><path d="M165.4,43.82V42.59a4.59,4.59,0,1,1,9.17,0v1.19h-6.65v.49a2.13,2.13,0,0,0,2.2,2.32c1,0,1.79-.5,1.91-1.15h2.44c-.1,1.29-1.38,3.14-4.34,3.14A4.37,4.37,0,0,1,165.4,43.82Zm6.68-1.6v-.11a2.09,2.09,0,1,0-4.16,0v.11Z"/><path d="M177.22,38h2.57v1.62h.12a2.62,2.62,0,0,1,2.62-1.78,4.11,4.11,0,0,1,.81.07v2.23a4.44,4.44,0,0,0-1-.09,2.22,2.22,0,0,0-2.48,2.38v5.93h-2.62Z"/><path d="M192.54,48.39V37.27h-3.78V35.06H199v2.21h-3.78V48.39Z"/><path d="M208.78,42.6v1.16a4.42,4.42,0,0,1-4.73,4.82c-2.87,0-4.75-1.72-4.75-4.82V42.62a4.49,4.49,0,0,1,4.75-4.77A4.44,4.44,0,0,1,208.78,42.6Zm-6.89.07v1.07c0,1.56.68,2.84,2.16,2.84s2.13-1.27,2.13-2.84V42.67c0-1.57-.7-2.83-2.13-2.83S201.89,41.11,201.89,42.67Z"/><path d="M220.37,42.6v1.16c0,3.08-1.89,4.82-4.73,4.82s-4.75-1.72-4.75-4.82V42.62a4.49,4.49,0,0,1,4.75-4.77A4.44,4.44,0,0,1,220.37,42.6Zm-6.88.07v1.07c0,1.56.67,2.84,2.15,2.84s2.13-1.27,2.13-2.84V42.67c0-1.57-.7-2.83-2.13-2.83S213.49,41.11,213.49,42.67Z"/><path d="M223,34.36h2.58v14H223Z"/><path d="M228.24,42.52a4.34,4.34,0,0,1,4.61-4.67c2.71,0,4.24,1.64,4.28,3.61h-2.37a1.7,1.7,0,0,0-1.84-1.55c-1.35,0-2.09,1-2.09,2.65v1.25c0,1.68.78,2.71,2.1,2.71a1.61,1.61,0,0,0,1.86-1.47h2.38c0,2-1.49,3.53-4.32,3.53s-4.61-1.82-4.61-4.76Z"/><path d="M239.67,34.36h2.56v5.5h.13a3,3,0,0,1,3.09-2c2,0,3.44,1.2,3.44,3.61v6.92h-2.57V42.18c0-1.53-.84-2.16-1.91-2.16-1.34,0-2.18,1.06-2.18,2.63v5.74h-2.56Z"/><path d="M251.35,45.38c0-1.85,1.29-3.08,3.69-3.08h2.53v-.93c0-1-.68-1.54-1.73-1.54s-1.55.46-1.68,1.1h-2.43c.12-1.7,1.33-3.07,4.17-3.07,2.32,0,4.22.94,4.22,3.57v7h-2.43V47.07h-.12a3,3,0,0,1-2.81,1.48A3.09,3.09,0,0,1,251.35,45.38Zm6.22-.46V43.85h-2c-1.15,0-1.68.58-1.68,1.37a1.5,1.5,0,0,0,1.69,1.43A1.83,1.83,0,0,0,257.57,44.92Z"/><path d="M264.57,33.54A1.44,1.44,0,1,1,263,35,1.45,1.45,0,0,1,264.57,33.54ZM263.29,38h2.57V48.39h-2.57Z"/><path d="M269.12,38h2.51v1.83h.13a2.93,2.93,0,0,1,3.08-2c2.08,0,3.46,1.19,3.46,3.59v6.94h-2.57V42.17c0-1.53-.81-2.15-1.86-2.15-1.39,0-2.18,1.07-2.18,2.63v5.74h-2.57Z"/></svg>